<svg fill="none" height="25" viewBox="0 0 25 25" width="25" xmlns="http://www.w3.org/2000/svg"><path clip-rule="evenodd" d="m20 5h-15v15h15zm-7.4746 11.1572c0 1.2617-.7512 1.9964-2.0462 1.9964-1.23677 0-1.98799-.7347-2.02119-1.8594v-.0332h1.21606v.0249c.0249.4607.29883.7844.78853.7844.5313 0 .8094-.3196.8094-.9214v-4.1379h1.2534zm5.7639.0581c0 1.187-.9214 1.9383-2.4155 1.9383-1.4319 0-2.3367-.6848-2.4072-1.7474l-.0042-.0664h1.2078l.0041.0415c.0457.4483.5313.7513 1.2327.7513.6682 0 1.1289-.3196 1.1289-.7803v-.0042c0-.3942-.2947-.6142-1.0376-.7678l-.6309-.1286c-1.2451-.2532-1.7805-.8343-1.7805-1.7432v-.0042c0-1.1123.9546-1.8469 2.2827-1.8469 1.3987 0 2.2205.7388 2.2993 1.739l.0042.054h-1.1787l-.0083-.0498c-.0706-.4275-.4856-.7263-1.1165-.7263-.6184.0041-1.0293.2863-1.0293.7346v.0041c0 .3902.2906.6226.9961.7679l.635.1286c1.2659.2615 1.8179.7678 1.8179 1.7017z" fill="#121923" fill-rule="evenodd"/></svg>